<?xml version="1.0" encoding="utf-8"?>
<!-- Generator: Adobe Illustrator 24.0.1, SVG Export Plug-In . SVG Version: 6.00 Build 0)  -->
<svg version="1.1" id="Capa_1" xmlns="http://www.w3.org/2000/svg" xmlns:xlink="http://www.w3.org/1999/xlink" x="0px" y="0px"
	 viewBox="0 0 194.7 221.4" style="enable-background:new 0 0 194.7 221.4;" xml:space="preserve">
<style type="text/css">
	.st0{fill-rule:evenodd;clip-rule:evenodd;fill:url(#SVGID_1_);}
</style>
<g>
	<linearGradient id="SVGID_1_" gradientUnits="userSpaceOnUse" x1="52.118" y1="70.02" x2="201.118" y2="174.02">
		<stop  offset="0" style="stop-color:#BC15FF"/>
		<stop  offset="1" style="stop-color:#7F007C"/>
	</linearGradient>
	<path class="st0" d="M90.3,1.8l11.8,55.5l-0.9,0.2c-0.8,0.1-1.6,0.3-2.4,0.5c-0.6,0.1-1.2,0.3-1.8,0.4l-0.9,0.2L84.4,3L90.3,1.8
		L90.3,1.8z M0.6,125.2l-0.6-6l56.4-5.9l0.1,0.9c0.1,1.3,0.2,2.6,0.4,3.9l0.2,1.3L0.6,125.2L0.6,125.2z M42.9,198.4l33.3-45.9
		l0.7,0.6c0.3,0.3,0.7,0.5,1,0.8c0.8,0.6,1.6,1.2,2.5,1.8l0.7,0.5l-1.1,1.5L47.8,202L42.9,198.4L42.9,198.4z M6.1,147.7L60,130.2
		l-0.3-0.8c-0.1-0.3-0.2-0.5-0.3-0.8c-0.4-1.1-0.7-2.2-1-3.3l-0.2-0.8l-0.8,0.3L4.2,142L6.1,147.7L6.1,147.7z M15.3,167.3l0.8,1.3
		l49.1-28.4l-0.5-0.8c-0.4-0.6-0.8-1.3-1.2-1.9c-0.3-0.6-0.7-1.2-1-1.8l-0.4-0.8l-47.2,27.3l-1.9,1.1L15.3,167.3L15.3,167.3z
		 M63.7,208.1l-1.1,2.5l5.5,2.4l23.1-51.8l-0.8-0.3c-0.3-0.1-0.6-0.2-0.8-0.4c-1-0.4-2-0.9-3-1.4l-0.8-0.4L63.7,208.1L63.7,208.1z
		 M30.2,187l32.4-29.2l9.7-8.8l-0.6-0.6c-0.2-0.1-0.3-0.3-0.4-0.4c-0.7-0.8-1.4-1.5-2.1-2.3c-0.1-0.1-0.2-0.3-0.3-0.4l-0.6-0.7
		l-42.1,37.9L30.2,187L30.2,187z M177.8,175.5l-29.5-26.6l0.6-0.6c1-1,1.9-2.1,2.9-3.2l0.6-0.7l1.4,1.2l40.9,36.8l-4,4.5l-1-0.9
		l-2.4-2.1l-7.1-6.4L177.8,175.5L177.8,175.5z M173,202l4.9-3.6l-33.4-46l-0.7,0.6c-1.1,0.9-2.3,1.7-3.4,2.5l-0.7,0.5L173,202
		L173,202z M107.4,221.4v-56.8h0.9c0.7,0,1.3,0.1,2,0.1c0.4,0,0.8,0,1.2,0c0.3,0,0.6,0,0.9,0h0.4l0.7,0.7v55.3l-0.7,0.7H107.4
		L107.4,221.4z M84.4,218.3l11.8-55.5l0.9,0.2c0.8,0.2,1.6,0.4,2.4,0.5c0.6,0.1,1.2,0.2,1.8,0.3l0.9,0.1l-11.8,55.5L84.4,218.3
		L84.4,218.3z M152.6,213l5.5-2.4l-22.6-50.8l-0.5-1.1l-0.8,0.4c-1.3,0.6-2.6,1.2-3.9,1.8l-0.8,0.3L152.6,213L152.6,213z
		 M130.4,219.6L118.6,164l0.9-0.1c0.8-0.1,1.5-0.3,2.3-0.4c0.6-0.1,1.3-0.3,1.9-0.4l0.9-0.2l11.8,55.6L130.4,219.6L130.4,219.6z
		 M58.1,96.9L4.2,79.3l1.9-5.7L60,91.1l-0.3,0.8c-0.2,0.6-0.4,1.2-0.6,1.8c-0.2,0.8-0.5,1.5-0.7,2.3L58.1,96.9L58.1,96.9z
		 M107.4,56.8V0.5l0.5-0.5h5l0.5,0.5v56.3h-0.9c-0.8,0-1.5,0-2.2,0c-0.3,0-0.7,0-1.1,0c-0.3,0-0.7,0-1,0H107.4L107.4,56.8z
		 M129.5,60.2l23.1-51.9l5.5,2.5L135,62.7l-0.8-0.4c-0.9-0.4-1.7-0.8-2.6-1.2c-0.4-0.2-0.9-0.4-1.3-0.5L129.5,60.2L129.5,60.2z
		 M119.5,53.4l-0.8,4l0.9,0.2c0.6,0.1,1.1,0.2,1.7,0.3c0.8,0.2,1.7,0.4,2.5,0.6l0.9,0.2l11.8-55.6l-5.9-1.3L119.5,53.4L119.5,53.4z
		 M141,63.4l-1.4,1.9l0.7,0.5c0.8,0.5,1.6,1.1,2.4,1.7c0.4,0.3,0.7,0.5,1.1,0.8l0.7,0.6l33.4-46l-4.9-3.5L141,63.4L141,63.4z
		 M149.7,73.9c0.7,0.8,1.4,1.6,2.1,2.3l0.6,0.7l42.3-38l-2.5-2.8l-1.5-1.7l-25.4,22.9l-16.8,15.1l0.6,0.6
		C149.2,73.3,149.5,73.6,149.7,73.9L149.7,73.9z M76.2,68.8L42.9,22.9l4.9-3.5l33.3,45.9l-0.7,0.5c-1.2,0.8-2.3,1.6-3.4,2.5
		L76.2,68.8L76.2,68.8z M13,58l49.1,28.3l0.4-0.8c0.7-1.3,1.4-2.5,2.1-3.7l0.5-0.8l-49-28.3L13,58L13,58z M67,75.7l1.3,1.1l0.6-0.7
		c0.9-1.1,1.9-2.2,2.9-3.2l0.6-0.6L31.1,35.2l-0.9-0.8l-4,4.5L67,75.7L67,75.7z M83.8,58.4l1.4,3.1l0.5,1.1l0.8-0.4
		c1.3-0.6,2.6-1.2,3.9-1.7l0.8-0.3L68.1,8.3l-5.5,2.5L83.8,58.4L83.8,58.4z M0,102.1l56.4,5.9l0.1-0.9c0-0.8,0.1-1.7,0.2-2.5
		c0.1-0.6,0.1-1.2,0.2-1.8L57,102L0.6,96.1L0,102.1z"/>
</g>
</svg>
